<?xml version="1.0" encoding="utf-8"?>
<!-- Generator: Adobe Illustrator 13.0.0, SVG Export Plug-In . SVG Version: 6.00 Build 14948)  -->
<!DOCTYPE svg PUBLIC "-//W3C//DTD SVG 1.1//EN" "http://www.w3.org/Graphics/SVG/1.1/DTD/svg11.dtd">
<svg version="1.1" id="Layer_1" xmlns="http://www.w3.org/2000/svg" xmlns:xlink="http://www.w3.org/1999/xlink" x="0px" y="0px"
	 width="399.584px" height="194.953px" viewBox="0 0 399.584 194.953" enable-background="new 0 0 399.584 194.953"
	 xml:space="preserve">
<path fill="#263572" d="M0,150.88V39.566h3.269v93.137h0.327c1.96-7.621,5.824-13.777,11.598-18.461
	c5.772-4.682,13.121-7.023,22.054-7.023c5.771,0,10.889,1.201,15.356,3.594c4.466,2.396,8.194,5.609,11.19,9.642
	c2.992,4.028,5.282,8.717,6.861,14.049c1.578,5.34,2.369,10.942,2.369,16.826c0,6.315-0.817,12.146-2.451,17.479
	c-1.633,5.336-4.002,9.939-7.106,13.807s-6.861,6.89-11.271,9.062c-4.412,2.178-9.394,3.269-14.949,3.269
	c-8.606,0-15.821-2.339-21.645-7.021c-5.83-4.683-9.937-10.752-12.412-18.041C3.191,169.878,0,162.958,0,150.88 M5.555,166.846
	c1.522,4.897,3.73,9.202,6.616,12.905c2.884,3.703,6.452,6.644,10.7,8.817c4.248,2.183,9.037,3.271,14.376,3.271
	c5.444,0,10.21-1.088,14.295-3.271c4.083-2.176,7.458-5.146,10.128-8.901c2.667-3.758,4.681-8.086,6.045-12.985
	c1.361-4.896,2.042-10.019,2.042-15.355c0-4.898-0.628-9.771-1.879-14.619c-1.252-4.846-3.185-9.201-5.798-13.064
	c-2.615-3.865-5.963-7.024-10.047-9.479s-9.014-3.682-14.785-3.682c-10.237,0-18.459,3.518-24.667,10.539
	c-6.208,7.022-9.312,17.131-9.312,30.305C3.269,156.775,4.028,161.943,5.555,166.846"/>
<path fill="#F89B28" d="M88.133,167.58c1.251,4.848,3.187,9.066,5.8,12.66c2.614,3.594,5.988,6.428,10.128,8.494
	c4.137,2.07,9.203,3.104,15.192,3.104c8.822,0,16.144-2.312,21.973-6.941c5.825-4.629,9.446-11.567,10.864-20.828h3.267
	c-1.2,9.804-5.064,17.396-11.599,22.787c-6.534,5.396-14.596,8.088-24.178,8.088c-6.534,0.105-12.118-0.926-16.745-3.104
	c-4.631-2.178-8.413-5.254-11.354-9.229c-2.94-3.979-5.121-8.657-6.534-14.051c-1.416-5.393-2.124-11.19-2.124-17.396
	c0-6.973,1.035-13.182,3.103-18.625c2.067-5.445,4.792-10.045,8.168-13.807c3.375-3.758,7.295-6.613,11.762-8.574
	c4.464-1.962,9.037-2.938,13.722-2.938c6.536,0,12.171,1.252,16.909,3.756c4.737,2.506,8.602,5.824,11.598,9.963
	c2.996,4.144,5.172,8.879,6.536,14.215c1.358,5.337,1.931,10.894,1.715,16.662H86.091C86.197,157.479,86.879,162.734,88.133,167.58
	 M150.946,133.925c-1.418-4.627-3.512-8.682-6.29-12.168c-2.777-3.483-6.237-6.235-10.374-8.252
	c-4.14-2.012-8.933-3.022-14.376-3.022c-4.573,0-8.851,0.873-12.824,2.615c-3.977,1.743-7.462,4.276-10.455,7.596
	c-2.998,3.324-5.42,7.328-7.27,12.012c-1.854,4.688-2.94,9.967-3.267,15.848h66.979C153.07,143.432,152.36,138.557,150.946,133.925"
	/>
<path fill="#F89B28" d="M233.608,177.216c-1.854,3.759-4.276,6.945-7.271,9.56c-2.994,2.615-6.479,4.635-10.454,6.045
	c-3.976,1.414-8.358,2.121-13.149,2.121c-5.988,0-11.297-1.111-15.925-3.349c-4.629-2.229-8.523-5.254-11.681-9.065
	c-3.159-3.812-5.555-8.247-7.188-13.312c-1.634-5.063-2.45-10.479-2.45-16.254c0-6.101,0.789-11.897,2.368-17.397
	c1.577-5.498,3.975-10.347,7.188-14.539c3.213-4.189,7.294-7.541,12.252-10.047c4.955-2.504,10.755-3.758,17.396-3.758
	c3.92,0,7.681,0.603,11.271,1.797c3.594,1.198,6.807,2.938,9.639,5.229c2.83,2.286,5.201,5.146,7.105,8.577
	c1.902,3.433,3.129,7.382,3.676,11.845h-3.269c-0.651-4.138-1.853-7.703-3.595-10.701c-1.74-2.99-3.863-5.494-6.369-7.514
	c-2.506-2.016-5.338-3.516-8.496-4.492c-3.161-0.979-6.48-1.475-9.963-1.475c-6.646,0-12.281,1.283-16.909,3.842
	c-4.631,2.562-8.333,5.883-11.11,9.965c-2.776,4.086-4.794,8.66-6.043,13.727c-1.253,5.062-1.879,10.047-1.879,14.945
	c0,5.121,0.734,10.021,2.206,14.705c1.47,4.686,3.618,8.816,6.452,12.414c2.832,3.594,6.372,6.448,10.619,8.576
	c4.248,2.122,9.148,3.188,14.704,3.188c4.14,0,8.004-0.625,11.602-1.879c3.595-1.252,6.777-3.076,9.559-5.473
	c2.774-2.396,5.035-5.257,6.776-8.58c1.741-3.316,2.774-7.104,3.104-11.354h3.27C236.603,169.242,235.459,173.46,233.608,177.216"/>
<path fill="#F89B28" d="M249.128,134.582c1.635-5.281,4.057-9.938,7.27-13.967c3.211-4.029,7.16-7.273,11.848-9.723
	c4.68-2.449,10.13-3.679,16.337-3.679c6.095,0,11.485,1.229,16.173,3.679c4.684,2.446,8.632,5.69,11.845,9.723
	c3.209,4.029,5.639,8.686,7.271,13.967c1.636,5.283,2.451,10.811,2.451,16.582s-0.815,11.299-2.451,16.58
	c-1.633,5.283-4.062,9.939-7.271,13.969c-3.213,4.029-7.161,7.244-11.845,9.639c-4.688,2.396-10.129,3.594-16.335,3.594
	c-6.104,0-11.495-1.198-16.175-3.594c-4.688-2.395-8.637-5.604-11.848-9.639c-3.213-4.027-5.635-8.686-7.27-13.969
	c-1.636-5.281-2.451-10.811-2.451-16.58C246.677,145.391,247.492,139.865,249.128,134.582 M252.149,166.52
	c1.472,4.897,3.677,9.229,6.617,12.983c2.938,3.759,6.559,6.756,10.859,8.988c4.305,2.231,9.282,3.348,14.948,3.348
	c5.555,0,10.479-1.114,14.782-3.348c4.304-2.232,7.925-5.229,10.861-8.988c2.942-3.756,5.146-8.086,6.615-12.983
	c1.472-4.898,2.207-10.021,2.207-15.354c0-5.229-0.735-10.293-2.207-15.191c-1.471-4.9-3.673-9.229-6.615-12.984
	c-2.938-3.76-6.562-6.782-10.861-9.067c-4.305-2.289-9.229-3.435-14.782-3.435c-5.666,0-10.646,1.146-14.948,3.435
	c-4.307,2.285-7.923,5.31-10.859,9.067c-2.94,3.755-5.146,8.084-6.617,12.984c-1.473,4.898-2.207,9.967-2.207,15.191
	C249.942,156.5,250.679,161.619,252.149,166.52"/>
<path fill="#F89B28" d="M339.141,109.178v20.745h0.326c0.76-3.266,1.987-6.262,3.676-8.983c1.689-2.721,3.812-5.113,6.372-7.188
	c2.562-2.068,5.526-3.676,8.903-4.818c3.372-1.145,7.13-1.717,11.27-1.717c4.355,0,8.357,0.654,12.013,1.961
	c3.646,1.307,6.803,3.242,9.475,5.801c2.668,2.562,4.737,5.717,6.209,9.478c1.469,3.758,2.204,8.086,2.204,12.985v55.707h-3.268
	V137.93c0-4.899-0.709-9.064-2.123-12.498c-1.416-3.433-3.354-6.261-5.805-8.494c-2.446-2.229-5.278-3.861-8.491-4.898
	c-3.217-1.035-6.616-1.557-10.21-1.557c-5.012,0-9.424,0.959-13.232,2.86c-3.812,1.908-6.998,4.468-9.555,7.679
	c-2.562,3.213-4.493,6.942-5.805,11.188c-1.308,4.25-1.959,8.717-1.959,13.396v47.539h-3.269v-83.969L339.141,109.178
	L339.141,109.178z"/>
<defs>
	<filter id="Adobe_OpacityMaskFilter" filterUnits="userSpaceOnUse" x="3.557" y="-0.5" width="395.735" height="97.875">
		<feColorMatrix  type="matrix" values="1 0 0 0 0  0 1 0 0 0  0 0 1 0 0  0 0 0 1 0"/>
	</filter>
</defs>
<mask maskUnits="userSpaceOnUse" x="3.557" y="-0.5" width="395.735" height="97.875" id="SVGID_2_">
	<g filter="url(#Adobe_OpacityMaskFilter)">
		
			<linearGradient id="SVGID_1_" gradientUnits="userSpaceOnUse" x1="109.5571" y1="941.9844" x2="505.292" y2="941.9844" gradientTransform="matrix(1 0 0 1 -106 -894.0469)">
			<stop  offset="0" style="stop-color:#FFFFFF"/>
			<stop  offset="1" style="stop-color:#000000"/>
		</linearGradient>
		<polygon fill="url(#SVGID_1_)" points="3.557,49.057 399.292,-1 399.292,96.875 		"/>
	</g>
</mask>
<linearGradient id="SVGID_3_" gradientUnits="userSpaceOnUse" x1="3.5571" y1="145.5156" x2="399.292" y2="145.5156" gradientTransform="matrix(1 0 0 -1 0 193.9531)">
	<stop  offset="0" style="stop-color:#FF9B28"/>
	<stop  offset="1" style="stop-color:#FFFF0F"/>
</linearGradient>
<polygon mask="url(#SVGID_2_)" fill="url(#SVGID_3_)" points="3.557,49.557 399.292,-0.5 399.292,97.375 "/>
<path fill="#FFFFFF" d="M274.37,62.92c0,1.945-1.576,3.523-3.523,3.523c-1.945,0-3.521-1.578-3.521-3.523
	c0-1.946,1.575-3.523,3.521-3.523C272.794,59.397,274.37,60.974,274.37,62.92"/>
<path fill="#FFFFFF" d="M201.856,42.644c0,1.945-1.58,3.523-3.524,3.523c-1.944,0-3.521-1.578-3.521-3.523
	c0-1.946,1.577-3.524,3.521-3.524C200.28,39.119,201.856,40.698,201.856,42.644"/>
<path fill="#FFFFFF" d="M132.937,50.184c0,1.945-1.576,3.523-3.524,3.523c-1.944,0-3.521-1.578-3.521-3.523s1.577-3.523,3.521-3.523
	C131.36,46.661,132.937,48.238,132.937,50.184"/>
<defs>
	<filter id="Adobe_OpacityMaskFilter_1_" filterUnits="userSpaceOnUse" x="4.355" y="14.115" width="395.113" height="48.831">
		<feColorMatrix  type="matrix" values="1 0 0 0 0  0 1 0 0 0  0 0 1 0 0  0 0 0 1 0"/>
	</filter>
</defs>
<mask maskUnits="userSpaceOnUse" x="4.355" y="14.115" width="395.113" height="48.831" id="SVGID_4_">
	<g filter="url(#Adobe_OpacityMaskFilter_1_)">
		
			<linearGradient id="SVGID_5_" gradientUnits="userSpaceOnUse" x1="3.7119" y1="154.7266" x2="399.7119" y2="154.7266" gradientTransform="matrix(1 0 0 -1 0 193.9531)">
			<stop  offset="0.7637" style="stop-color:#FFFFFF"/>
			<stop  offset="0.8007" style="stop-color:#FCFCFC"/>
			<stop  offset="0.8313" style="stop-color:#F1F1F1"/>
			<stop  offset="0.8597" style="stop-color:#E0E0E0"/>
			<stop  offset="0.8868" style="stop-color:#C8C8C8"/>
			<stop  offset="0.9129" style="stop-color:#A8A8A8"/>
			<stop  offset="0.9382" style="stop-color:#828282"/>
			<stop  offset="0.963" style="stop-color:#545454"/>
			<stop  offset="0.9867" style="stop-color:#202020"/>
			<stop  offset="1" style="stop-color:#000000"/>
		</linearGradient>
		<rect x="3.712" y="11.477" fill="url(#SVGID_5_)" width="396" height="55.5"/>
	</g>
</mask>
<polyline mask="url(#SVGID_4_)" fill="none" stroke="#FFFFFF" stroke-miterlimit="10" points="4.356,49.436 130.334,49.684 
	199.253,42.145 271.767,62.42 399.292,14.583 "/>
</svg>
